<?xml version="1.0" standalone="no"?>
<!DOCTYPE svg PUBLIC "-//W3C//DTD SVG 20010904//EN"
 "http://www.w3.org/TR/2001/REC-SVG-20010904/DTD/svg10.dtd">
<svg version="1.0" xmlns="http://www.w3.org/2000/svg"
 width="920.000000pt" height="961.000000pt" viewBox="0 0 920.000000 961.000000"
 preserveAspectRatio="xMidYMid meet">

<g transform="translate(0.000000,961.000000) scale(0.100000,-0.100000)"
fill="#000000" stroke="none">
<path d="M7899 9173 c-38 -19 -103 -75 -224 -195 l-170 -167 360 -361 360
-361 161 163 c195 199 220 240 211 348 -10 122 -64 206 -255 392 -208 204
-311 246 -443 181z"/>
<path d="M6596 9075 c-73 -20 -141 -72 -278 -213 -186 -191 -218 -248 -218
-386 0 -92 4 -97 225 -329 173 -182 1292 -1299 1433 -1431 148 -138 189 -154
317 -121 92 24 143 58 267 178 216 210 267 292 255 417 -9 107 -21 122 -389
500 -396 408 -1282 1280 -1369 1348 -30 24 -121 52 -163 51 -17 0 -53 -7 -80
-14z"/>
<path d="M5218 8754 c-58 -18 -249 -191 -456 -414 -174 -188 -187 -212 -187
-340 0 -140 15 -175 137 -311 117 -133 2084 -2100 2394 -2395 243 -231 239
-229 415 -229 98 0 108 2 146 27 65 43 305 270 455 431 122 131 140 155 154
204 31 105 -11 221 -127 354 -97 112 -1802 1822 -2238 2245 -190 184 -368 352
-396 374 -83 64 -197 85 -297 54z"/>
<path d="M4251 5565 c-594 -593 -1081 -1083 -1081 -1089 0 -6 160 -171 355
-366 l355 -355 117 116 c65 64 555 551 1088 1082 l970 966 -361 362 -362 362
-1081 -1078z"/>
<path d="M1677 5216 c-54 -20 -126 -83 -375 -332 -252 -252 -266 -272 -266
-389 0 -117 19 -154 151 -301 159 -176 2470 -2486 2559 -2557 103 -82 171
-111 264 -111 51 -1 85 4 105 16 75 41 527 493 593 593 48 73 54 187 15 309
-13 42 -45 80 -212 254 -286 299 -1758 1778 -2091 2101 -335 324 -416 396
-467 412 -60 18 -231 22 -276 5z"/>
<path d="M1233 3700 c-84 -20 -193 -100 -329 -243 -187 -195 -229 -312 -163
-452 31 -66 753 -805 1402 -1435 291 -283 334 -321 383 -339 96 -37 200 -25
284 32 72 48 334 316 360 367 45 88 63 205 41 263 -6 14 -38 58 -72 99 -84 97
-1172 1192 -1467 1473 -201 193 -238 224 -277 234 -49 12 -114 13 -162 1z"/>
<path d="M849 2163 c-247 -252 -277 -307 -232 -439 26 -80 80 -152 202 -274
176 -175 287 -240 409 -240 93 1 128 23 314 207 l169 167 -358 358 c-197 197
-361 358 -364 358 -3 0 -66 -62 -140 -137z"/>
</g>
</svg>
